<mxfile modified="2022-06-14T10:59:38.037Z" host="app.diagrams.net" agent="5.0 (Windows NT 10.0; Win64; x64) AppleWebKit/537.36 (KHTML, like Gecko) Chrome/102.0.0.0 Safari/537.36" etag="RAGe4VdMpqr7t2alF7h9" version="19.0.2" type="github">
  <diagram id="WI9T0HZ2pTsCkuznbFz-" name="Page-1">
    <mxGraphModel dx="1422" dy="804" grid="1" gridSize="10" guides="1" tooltips="1" connect="1" arrows="1" fold="1" page="1" pageScale="1" pageWidth="827" pageHeight="1169" math="0" shadow="0">
      <root>
        <mxCell id="0" />
        <mxCell id="1" parent="0" />
        <mxCell id="_nmBp-12iYZi9GvjYyCj-22" value="" style="rounded=1;whiteSpace=wrap;html=1;strokeColor=#999999;fillColor=none;" vertex="1" parent="1">
          <mxGeometry x="240" y="640" width="360" height="100" as="geometry" />
        </mxCell>
        <mxCell id="_nmBp-12iYZi9GvjYyCj-21" value="" style="rounded=1;whiteSpace=wrap;html=1;strokeColor=#999999;fillColor=none;" vertex="1" parent="1">
          <mxGeometry x="240" y="430" width="360" height="142.43" as="geometry" />
        </mxCell>
        <mxCell id="_nmBp-12iYZi9GvjYyCj-20" style="edgeStyle=orthogonalEdgeStyle;rounded=0;orthogonalLoop=1;jettySize=auto;html=1;entryX=0;entryY=0.5;entryDx=0;entryDy=0;entryPerimeter=0;" edge="1" parent="1" source="_nmBp-12iYZi9GvjYyCj-6" target="_nmBp-12iYZi9GvjYyCj-16">
          <mxGeometry relative="1" as="geometry">
            <mxPoint x="250" y="490" as="targetPoint" />
          </mxGeometry>
        </mxCell>
        <mxCell id="_nmBp-12iYZi9GvjYyCj-6" value="用户&lt;br&gt;" style="verticalLabelPosition=bottom;html=1;verticalAlign=top;align=center;strokeColor=none;fillColor=#00BEF2;shape=mxgraph.azure.user;" vertex="1" parent="1">
          <mxGeometry x="140" y="469.875" width="47.5" height="50" as="geometry" />
        </mxCell>
        <mxCell id="_nmBp-12iYZi9GvjYyCj-13" value="数据库" style="verticalLabelPosition=bottom;html=1;verticalAlign=top;align=center;strokeColor=none;fillColor=#00BEF2;shape=mxgraph.azure.mysql_database;" vertex="1" parent="1">
          <mxGeometry x="313.75" y="665" width="37.5" height="50" as="geometry" />
        </mxCell>
        <mxCell id="_nmBp-12iYZi9GvjYyCj-14" value="Service Bus" style="verticalLabelPosition=bottom;html=1;verticalAlign=top;align=center;strokeColor=none;fillColor=#00BEF2;shape=mxgraph.azure.service_bus_queues;pointerEvents=1;" vertex="1" parent="1">
          <mxGeometry x="414" y="665" width="42.5" height="50" as="geometry" />
        </mxCell>
        <mxCell id="_nmBp-12iYZi9GvjYyCj-29" style="edgeStyle=orthogonalEdgeStyle;rounded=0;orthogonalLoop=1;jettySize=auto;html=1;entryX=0;entryY=0.491;entryDx=0;entryDy=0;entryPerimeter=0;" edge="1" parent="1" source="_nmBp-12iYZi9GvjYyCj-16" target="yIlqXNv4PA9Dnh1hxRCn-35">
          <mxGeometry relative="1" as="geometry">
            <mxPoint x="490" y="495" as="targetPoint" />
          </mxGeometry>
        </mxCell>
        <mxCell id="_nmBp-12iYZi9GvjYyCj-16" value="前端服务&lt;br&gt;" style="verticalLabelPosition=bottom;html=1;verticalAlign=top;align=center;strokeColor=none;fillColor=#00BEF2;shape=mxgraph.azure.azure_website;pointerEvents=1;" vertex="1" parent="1">
          <mxGeometry x="307.5" y="469.875" width="50" height="50" as="geometry" />
        </mxCell>
        <mxCell id="_nmBp-12iYZi9GvjYyCj-39" style="edgeStyle=orthogonalEdgeStyle;rounded=0;orthogonalLoop=1;jettySize=auto;html=1;" edge="1" parent="1" source="yIlqXNv4PA9Dnh1hxRCn-35" target="_nmBp-12iYZi9GvjYyCj-13">
          <mxGeometry relative="1" as="geometry">
            <Array as="points">
              <mxPoint x="507" y="590" />
              <mxPoint x="333" y="590" />
            </Array>
          </mxGeometry>
        </mxCell>
        <mxCell id="_nmBp-12iYZi9GvjYyCj-40" style="edgeStyle=orthogonalEdgeStyle;rounded=0;orthogonalLoop=1;jettySize=auto;html=1;entryX=0.41;entryY=0;entryDx=0;entryDy=0;entryPerimeter=0;" edge="1" parent="1" source="yIlqXNv4PA9Dnh1hxRCn-35" target="_nmBp-12iYZi9GvjYyCj-14">
          <mxGeometry relative="1" as="geometry">
            <Array as="points">
              <mxPoint x="507" y="590" />
              <mxPoint x="431" y="590" />
            </Array>
          </mxGeometry>
        </mxCell>
        <mxCell id="_nmBp-12iYZi9GvjYyCj-41" style="edgeStyle=orthogonalEdgeStyle;rounded=0;orthogonalLoop=1;jettySize=auto;html=1;entryX=0.5;entryY=0;entryDx=0;entryDy=0;entryPerimeter=0;" edge="1" parent="1" source="yIlqXNv4PA9Dnh1hxRCn-35" target="_nmBp-12iYZi9GvjYyCj-24">
          <mxGeometry relative="1" as="geometry">
            <Array as="points">
              <mxPoint x="507" y="590" />
              <mxPoint x="523" y="590" />
            </Array>
          </mxGeometry>
        </mxCell>
        <mxCell id="yIlqXNv4PA9Dnh1hxRCn-35" value="后端服务" style="aspect=fixed;html=1;perimeter=none;align=center;shadow=0;dashed=0;image;fontSize=12;image=img/lib/mscae/Virtual_Machine.svg;" parent="1" vertex="1">
          <mxGeometry x="480" y="469.875" width="54" height="50" as="geometry" />
        </mxCell>
        <mxCell id="_nmBp-12iYZi9GvjYyCj-24" value="Azure Storage" style="verticalLabelPosition=bottom;html=1;verticalAlign=top;align=center;strokeColor=none;fillColor=#00BEF2;shape=mxgraph.azure.storage;pointerEvents=1;" vertex="1" parent="1">
          <mxGeometry x="498" y="670" width="50" height="40" as="geometry" />
        </mxCell>
      </root>
    </mxGraphModel>
  </diagram>
</mxfile>
